<svg xmlns="http://www.w3.org/2000/svg" viewBox="0 0 582 345.3"><path fill="#EBF0F0" d="M0 0h582.5v346.7H0z"/><path opacity=".2" fill="#C8D2D2" d="M38.2 58.9h22.7v288.8H38.2zM83.5 58.9h22.7v288.8H83.5zM128.9 58.9h22.7v288.8h-22.7zM174.3 58.9H197v288.8h-22.7zM219.6 58.9h22.7v288.8h-22.7zM265 58.9h22.7v288.8H265zM310.3 58.9H333v288.8h-22.7zM355.7 58.9h22.7v288.8h-22.7zM401.1 58.9h22.7v288.8h-22.7zM446.4 58.9h22.7v288.8h-22.7zM491.8 58.9h22.7v288.8h-22.7zM537.2 58.9h22.7v288.8h-22.7z"/><path fill="#828C8C" d="M568.8 96.5l.4-.5c.4.4.9.7 1.5.7.8 0 1.4-.6 1.4-1.4 0-.8-.6-1.3-1.4-1.3-.5 0-.8.1-1.1.3l-.4-.3.2-3.1h3.2v.6H570l-.1 2c.3-.1.6-.2 1-.2 1.1 0 2 .7 2 1.9s-.9 2.1-2.1 2.1c-.9 0-1.5-.4-2-.8zM548.7 95.7h-2.9l-.1-.5 3.1-4.5h.6v4.4h.9v.6h-.9v1.5h-.6v-1.5zm0-.6v-3.3l-2.3 3.3h2.3zM523.1 96.4l.4-.5c.4.4.8.7 1.5.7s1.3-.5 1.3-1.3-.7-1.2-1.7-1.2h-.2l-.1-.4 1.8-2.3h-2.7v-.6h3.6v.5l-1.8 2.3c1 .1 1.9.6 1.9 1.8 0 1.2-.9 1.9-2 1.9-.9 0-1.6-.4-2-.9zM500.3 96.6l2.1-2.3c.8-.8 1.1-1.3 1.1-1.9 0-.7-.5-1.1-1.2-1.1-.6 0-1 .3-1.4.9l-.5-.4c.5-.7 1.1-1.1 2-1.1 1 0 1.8.7 1.8 1.7 0 .8-.4 1.4-1.3 2.3l-1.6 1.8h2.9v.6h-3.9v-.5zM480.9 91.5l-1 .4-.1-.6 1.3-.5h.5v6.4h-.7v-5.7z"/><g fill="#828C8C"><path d="M453.6 96.6l2.1-2.3c.8-.8 1.1-1.3 1.1-1.9 0-.7-.5-1.1-1.2-1.1-.6 0-1 .3-1.4.9l-.5-.4c.5-.7 1.1-1.1 2-1.1 1 0 1.8.7 1.8 1.7 0 .8-.4 1.4-1.3 2.3l-1.6 1.8h2.9v.6h-3.9v-.5zM461.2 95.7h-2.9l-.1-.5 3.1-4.5h.6v4.4h.9v.6h-.9v1.5h-.6v-1.5zm0-.6v-3.3l-2.3 3.3h2.3z"/></g><g fill="#828C8C"><path d="M430.9 96.6l2.1-2.3c.8-.8 1.1-1.3 1.1-1.9 0-.7-.5-1.1-1.2-1.1-.6 0-1 .3-1.4.9l-.5-.4c.5-.7 1.1-1.1 2-1.1 1 0 1.8.7 1.8 1.7 0 .8-.4 1.4-1.3 2.3l-1.6 1.8h2.9v.6h-3.9v-.5zM435.6 96.4l.4-.5c.4.4.8.7 1.5.7s1.3-.5 1.3-1.3-.7-1.2-1.7-1.2h-.2l-.1-.4 1.8-2.3h-2.7v-.6h3.6v.5l-1.8 2.3c1 .1 1.9.6 1.9 1.8 0 1.2-.9 1.9-2 1.9-.9 0-1.5-.4-2-.9z"/></g><g fill="#828C8C"><path d="M408.1 96.6l2.1-2.3c.8-.8 1.1-1.3 1.1-1.9 0-.7-.5-1.1-1.2-1.1-.6 0-1 .3-1.4.9l-.5-.4c.5-.7 1.1-1.1 2-1.1 1 0 1.8.7 1.8 1.7 0 .8-.4 1.4-1.3 2.3l-1.6 1.8h2.9v.6h-3.9v-.5zM412.9 96.6l2.1-2.3c.8-.8 1.1-1.3 1.1-1.9 0-.7-.5-1.1-1.2-1.1-.6 0-1 .3-1.4.9l-.5-.4c.5-.7 1.1-1.1 2-1.1 1 0 1.8.7 1.8 1.7 0 .8-.4 1.4-1.3 2.3l-1.6 1.8h2.9v.6h-3.9v-.5z"/></g><g fill="#828C8C"><path d="M386.2 96.6l2.1-2.3c.8-.8 1.1-1.3 1.1-1.9 0-.7-.5-1.1-1.2-1.1-.6 0-1 .3-1.4.9l-.5-.4c.5-.7 1.1-1.1 2-1.1 1 0 1.8.7 1.8 1.7 0 .8-.4 1.4-1.3 2.3l-1.6 1.8h2.9v.6h-3.9v-.5zM392 91.5l-1 .4-.1-.6 1.3-.5h.5v6.4h-.7v-5.7z"/></g><g fill="#828C8C"><path d="M362 96.6l2.1-2.3c.8-.8 1.1-1.3 1.1-1.9 0-.7-.5-1.1-1.2-1.1-.6 0-1 .3-1.4.9l-.5-.4c.5-.7 1.1-1.1 2-1.1 1 0 1.8.7 1.8 1.7 0 .8-.4 1.4-1.3 2.3l-1.6 1.8h2.9v.6H362v-.5zM366.9 94c0-2 .9-3.3 2.3-3.3s2.3 1.3 2.3 3.3c0 1.9-.9 3.3-2.3 3.3-1.5 0-2.3-1.4-2.3-3.3zm3.9 0c0-1.6-.6-2.7-1.6-2.7s-1.6 1.1-1.6 2.6v.1c0 1.5.6 2.7 1.6 2.7 1-.1 1.6-1.2 1.6-2.7z"/></g><g fill="#828C8C"><path d="M341.3 91.5l-1 .4-.1-.6 1.3-.5h.5v6.4h-.7v-5.7zM346.8 93.9c-.3.5-.9.9-1.5.9-1.1 0-1.9-.7-1.9-2 0-1.2.9-2.2 2-2.2.6 0 1.1.2 1.4.6.4.4.7 1.2.7 2.5v.1c0 2.2-1 3.5-2.4 3.5-.6 0-1.2-.2-1.6-.6l.4-.5c.4.3.8.5 1.3.5 1-.1 1.6-1.2 1.6-2.8zm-.1-1.1c0-.9-.5-1.5-1.4-1.5-.8 0-1.3.7-1.3 1.5 0 .9.5 1.4 1.3 1.4s1.4-.6 1.4-1.4z"/></g><g fill="#828C8C"><path d="M318.6 91.5l-1 .4-.1-.6 1.3-.5h.5v6.4h-.7v-5.7zM320.5 95.5c0-.8.5-1.3 1.2-1.6-.5-.3-1-.7-1-1.5 0-1 .9-1.7 1.9-1.7 1 0 1.9.7 1.9 1.7 0 .7-.4 1.2-1 1.5.7.3 1.2.8 1.2 1.6 0 1.1-.9 1.8-2.1 1.8-1.2 0-2.1-.8-2.1-1.8zm3.5-.1c0-.7-.6-1.3-1.4-1.3s-1.4.5-1.4 1.3c0 .7.5 1.2 1.4 1.2.8.1 1.4-.5 1.4-1.2zm-.2-3c0-.7-.5-1.1-1.2-1.1s-1.2.5-1.2 1.1c0 .7.5 1.2 1.2 1.2s1.2-.5 1.2-1.2z"/></g><g fill="#828C8C"><path d="M295.9 91.5l-1 .4-.1-.6 1.3-.5h.5v6.4h-.7v-5.7zM300.9 91.4h-3v-.6h3.7v.5l-2.5 5.9h-.7l2.5-5.8z"/></g><g fill="#828C8C"><path d="M273.6 91.5l-1 .4-.1-.6 1.3-.5h.5v6.4h-.7v-5.7zM276.3 96.7c-.5-.5-.7-1.1-.7-2.5v-.1c0-2.1.9-3.5 2.4-3.5.6 0 1.1.2 1.5.6l-.4.5c-.3-.3-.7-.5-1.2-.5-1.1 0-1.6 1.2-1.7 2.7.3-.5.9-.9 1.6-.9 1 0 1.9.7 1.9 2 0 1.2-.9 2.1-2 2.1-.5.2-1 0-1.4-.4zm2.8-1.5c0-.9-.5-1.4-1.3-1.4s-1.4.6-1.4 1.4c0 .8.5 1.5 1.4 1.5.7-.1 1.3-.7 1.3-1.5z"/></g><g fill="#828C8C"><path d="M250.2 91.5l-1 .4-.1-.6 1.3-.5h.5v6.4h-.7v-5.7zM252.1 96.5l.4-.5c.4.4.9.7 1.5.7.8 0 1.4-.6 1.4-1.4 0-.8-.6-1.3-1.4-1.3-.5 0-.8.1-1.1.3l-.4-.3.2-3.1h3.2v.6h-2.6l-.1 2c.3-.1.6-.2 1-.2 1.1 0 2 .7 2 1.9s-.9 2.1-2.1 2.1c-.9 0-1.6-.4-2-.8z"/></g><g fill="#828C8C"><path d="M227.9 91.5l-1 .4-.1-.6 1.3-.5h.5v6.4h-.7v-5.7zM232.7 95.7h-2.9l-.1-.5 3.1-4.5h.6v4.4h.9v.6h-.9v1.5h-.6v-1.5zm0-.6v-3.3l-2.3 3.3h2.3z"/></g><g fill="#828C8C"><path d="M206 91.5l-1 .4-.1-.6 1.3-.5h.5v6.4h-.7v-5.7zM207.9 96.4l.4-.5c.4.4.8.7 1.5.7s1.3-.5 1.3-1.3-.7-1.2-1.7-1.2h-.2l-.1-.4 1.8-2.3h-2.7v-.6h3.6v.5l-1.8 2.3c1 .1 1.9.6 1.9 1.8 0 1.2-.9 1.9-2 1.9-.9 0-1.6-.4-2-.9z"/></g><g fill="#828C8C"><path d="M183.2 91.5l-1 .4-.1-.6 1.3-.5h.5v6.4h-.7v-5.7zM185.1 96.6l2.1-2.3c.8-.8 1.1-1.3 1.1-1.9 0-.7-.5-1.1-1.2-1.1-.6 0-1 .3-1.4.9l-.5-.4c.5-.7 1.1-1.1 2-1.1 1 0 1.8.7 1.8 1.7 0 .8-.4 1.4-1.3 2.3l-1.6 1.8h2.9v.6h-3.9v-.5z"/></g><g fill="#828C8C"><path d="M161.3 91.5l-1 .4-.1-.6 1.3-.5h.5v6.4h-.7v-5.7zM164.2 91.5l-1 .4-.1-.6 1.3-.5h.5v6.4h-.7v-5.7z"/></g><g fill="#828C8C"><path d="M137.9 91.5l-1 .4-.1-.6 1.3-.5h.5v6.4h-.7v-5.7zM139.9 94c0-2 .9-3.3 2.3-3.3s2.3 1.3 2.3 3.3c0 1.9-.9 3.3-2.3 3.3-1.5 0-2.3-1.4-2.3-3.3zm3.9 0c0-1.6-.6-2.7-1.6-2.7s-1.6 1.1-1.6 2.6v.1c0 1.5.6 2.7 1.6 2.7 1-.1 1.6-1.2 1.6-2.7z"/></g><path fill="#828C8C" d="M119.3 93.9c-.3.5-.9.9-1.5.9-1.1 0-1.9-.7-1.9-2 0-1.2.9-2.2 2-2.2.6 0 1.1.2 1.4.6.4.4.7 1.2.7 2.5v.1c0 2.2-1 3.5-2.4 3.5-.6 0-1.2-.2-1.6-.6l.4-.5c.4.3.8.5 1.3.5 1-.1 1.6-1.2 1.6-2.8zm-.1-1.1c0-.9-.5-1.5-1.4-1.5-.8 0-1.3.7-1.3 1.5 0 .9.5 1.4 1.3 1.4s1.4-.6 1.4-1.4zM93 95.5c0-.8.5-1.3 1.2-1.6-.5-.3-1-.7-1-1.5 0-1 .9-1.7 1.9-1.7 1 0 1.9.7 1.9 1.7 0 .7-.4 1.2-1 1.5.7.3 1.2.8 1.2 1.6 0 1.1-.9 1.8-2.1 1.8-1.2 0-2.1-.8-2.1-1.8zm3.5-.1c0-.7-.6-1.3-1.4-1.3s-1.4.5-1.4 1.3c0 .7.5 1.2 1.4 1.2.8.1 1.4-.5 1.4-1.2zm-.2-3c0-.7-.5-1.1-1.2-1.1s-1.2.5-1.2 1.1c0 .7.5 1.2 1.2 1.2.6 0 1.2-.5 1.2-1.2zM73.4 91.4h-3v-.6h3.7v.5l-2.5 5.9h-.7l2.5-5.8zM48.1 96.7c-.5-.5-.7-1.1-.7-2.5v-.1c0-2.1.9-3.5 2.4-3.5.6 0 1.1.2 1.5.6l-.4.5c-.3-.3-.7-.5-1.2-.5-1.1 0-1.6 1.2-1.7 2.7.3-.5.9-.9 1.6-.9 1 0 1.9.7 1.9 2 0 1.2-.9 2.1-2 2.1-.6.2-1.1 0-1.4-.4zm2.7-1.5c0-.9-.5-1.4-1.3-1.4s-1.4.6-1.4 1.4c0 .8.5 1.5 1.4 1.5.8-.1 1.3-.7 1.3-1.5z"/><path fill="#9EC400" d="M197.5 274.8h203.2v49.5H197.5z"/><path fill="#FFD816" d="M83.7 225.5h203.9V275H83.7z"/><path fill="#7856AF" d="M446.4 176.2H583v49.5H446.4z"/><path fill="#FF8C0F" d="M401.8 127H583v49.5H401.8zM37.9 127h22.9v49.5H37.9z"/><path opacity=".2" fill="none" stroke="#C9D3D2" stroke-miterlimit="10" d="M582.5 57.9H38.2"/><g fill="#828C8C"><path d="M10.4 94c0-2 1.3-3.3 3-3.3.9 0 1.5.3 2.1.7l-.8 1c-.3-.3-.7-.5-1.3-.5-.9 0-1.6.8-1.6 2v.1c0 1.3.7 2.1 1.7 2.1.4 0 .7-.1 1-.3v-1.1h-1.2v-1.2h2.4v3c-.6.4-1.3.8-2.3.8-1.8 0-3-1.3-3-3.3zM16.7 90.8h1.4l1.4 2.6 1.4-2.6h1.4v6.4H21v-4.1l-1.5 2.6-1.5-2.6v4.1h-1.3v-6.4zM24.9 92h-1.6v-1.2h4.5V92h-1.6v5.2h-1.3V92z"/></g><g fill="#828C8C"><path d="M566.3 72.9l2.1-2.3c.8-.8 1.1-1.3 1.1-1.9 0-.7-.5-1.1-1.2-1.1-.6 0-1 .3-1.4.9l-.5-.4c.5-.7 1.1-1.1 2-1.1 1 0 1.8.7 1.8 1.7 0 .8-.4 1.4-1.3 2.3l-1.6 1.8h2.9v.6h-3.9v-.5zM573.8 71.9h-2.9l-.1-.5 3.1-4.5h.6v4.4h.9v.6h-.9v1.5h-.6v-1.5zm0-.5V68l-2.3 3.3h2.3z"/></g><g fill="#828C8C"><path d="M543.6 72.9l2.1-2.3c.8-.8 1.1-1.3 1.1-1.9 0-.7-.5-1.1-1.2-1.1-.6 0-1 .3-1.4.9l-.5-.4c.5-.7 1.1-1.1 2-1.1 1 0 1.8.7 1.8 1.7 0 .8-.4 1.4-1.3 2.3l-1.6 1.8h2.9v.6h-3.9v-.5zM548.3 72.6l.4-.5c.4.4.8.7 1.5.7s1.3-.5 1.3-1.3-.7-1.2-1.7-1.2h-.2l-.1-.4 1.8-2.3h-2.7V67h3.6v.5l-1.8 2.3c1 .1 1.9.6 1.9 1.8 0 1.2-.9 1.9-2 1.9-.9 0-1.6-.4-2-.9z"/></g><g fill="#828C8C"><path d="M520.8 72.9l2.1-2.3c.8-.8 1.1-1.3 1.1-1.9 0-.7-.5-1.1-1.2-1.1-.6 0-1 .3-1.4.9l-.5-.4c.5-.7 1.1-1.1 2-1.1 1 0 1.8.7 1.8 1.7 0 .8-.4 1.4-1.3 2.3l-1.6 1.8h2.9v.6h-3.9v-.5zM525.5 72.9l2.1-2.3c.8-.8 1.1-1.3 1.1-1.9 0-.7-.5-1.1-1.2-1.1-.6 0-1 .3-1.4.9l-.5-.4c.5-.7 1.1-1.1 2-1.1 1 0 1.8.7 1.8 1.7 0 .8-.4 1.4-1.3 2.3l-1.6 1.8h2.9v.6h-3.9v-.5z"/></g><g fill="#828C8C"><path d="M498.9 72.9l2.1-2.3c.8-.8 1.1-1.3 1.1-1.9 0-.7-.5-1.1-1.2-1.1-.6 0-1 .3-1.4.9l-.5-.4c.5-.7 1.1-1.1 2-1.1 1 0 1.8.7 1.8 1.7 0 .8-.4 1.4-1.3 2.3l-1.6 1.8h2.9v.6h-3.9v-.5zM504.6 67.7l-1 .4-.1-.6 1.3-.5h.5v6.4h-.7v-5.7z"/></g><g fill="#828C8C"><path d="M476.2 72.9l2.1-2.3c.8-.8 1.1-1.3 1.1-1.9 0-.7-.5-1.1-1.2-1.1-.6 0-1 .3-1.4.9l-.5-.4c.5-.7 1.1-1.1 2-1.1 1 0 1.8.7 1.8 1.7 0 .8-.4 1.4-1.3 2.3l-1.6 1.8h2.9v.6h-3.9v-.5zM481 70.3c0-2 .9-3.3 2.3-3.3s2.3 1.3 2.3 3.3v.1c0 1.9-.9 3.3-2.3 3.3-1.4-.2-2.3-1.5-2.3-3.4zm4 0c0-1.6-.6-2.7-1.6-2.7s-1.6 1.1-1.6 2.6v.1c0 1.5.6 2.7 1.6 2.7.9-.1 1.6-1.2 1.6-2.7z"/></g><g fill="#828C8C"><path d="M455.5 67.7l-1 .4-.1-.6 1.3-.5h.5v6.4h-.7v-5.7zM461 70.2c-.3.5-.9.9-1.5.9-1.1 0-1.9-.7-1.9-2 0-1.2.9-2.2 2-2.2.6 0 1.1.2 1.4.6.4.4.7 1.2.7 2.5 0 2.2-1 3.5-2.4 3.5-.6 0-1.2-.2-1.6-.6l.4-.5c.4.3.8.5 1.3.5 1 0 1.6-1.2 1.6-2.7zm-.1-1.1c0-.9-.5-1.5-1.4-1.5-.8 0-1.3.7-1.3 1.5 0 .9.5 1.4 1.3 1.4s1.4-.6 1.4-1.4z"/></g><g fill="#828C8C"><path d="M432.8 67.7l-1 .4-.1-.6 1.3-.5h.5v6.4h-.7v-5.7zM434.7 71.7c0-.8.5-1.3 1.2-1.6-.5-.3-1-.7-1-1.5 0-1 .9-1.7 1.9-1.7 1 0 1.9.7 1.9 1.7 0 .7-.4 1.2-1 1.5.7.3 1.2.8 1.2 1.6 0 1.1-.9 1.8-2.1 1.8-1.2 0-2.1-.7-2.1-1.8zm3.4 0c0-.7-.6-1.3-1.4-1.3s-1.4.5-1.4 1.3c0 .7.5 1.2 1.4 1.2.9 0 1.4-.5 1.4-1.2zm-.1-3c0-.7-.5-1.1-1.2-1.1s-1.2.5-1.2 1.1c0 .7.5 1.2 1.2 1.2.6-.1 1.2-.6 1.2-1.2z"/></g><g fill="#828C8C"><path d="M410.1 67.7l-1 .4-.1-.6 1.3-.5h.5v6.4h-.7v-5.7zM415.1 67.7h-3V67h3.7v.5l-2.5 5.9h-.7l2.5-5.7z"/></g><g fill="#828C8C"><path d="M387 67.7l-1 .4-.1-.6 1.3-.5h.5v6.4h-.7v-5.7zM389.7 73c-.5-.5-.7-1.1-.7-2.5v-.1c0-2.1.9-3.5 2.4-3.5.6 0 1.1.2 1.5.6l-.4.5c-.3-.3-.7-.5-1.2-.5-1.1 0-1.6 1.2-1.7 2.7.3-.5.9-.9 1.6-.9 1 0 1.9.7 1.9 2 0 1.2-.9 2.1-2 2.1-.5.1-1-.1-1.4-.4zm2.8-1.6c0-.9-.5-1.4-1.3-1.4s-1.4.6-1.4 1.4c0 .8.5 1.5 1.4 1.5.8 0 1.3-.7 1.3-1.5z"/></g><g fill="#828C8C"><path d="M364.3 67.7l-1 .4-.1-.6 1.3-.5h.5v6.4h-.7v-5.7zM366.2 72.7l.4-.5c.4.4.9.7 1.5.7.8 0 1.4-.6 1.4-1.4 0-.8-.6-1.3-1.4-1.3-.5 0-.8.1-1.1.3l-.4-.3.2-3.1h3.2v.6h-2.6l-.1 2c.3-.1.6-.2 1-.2 1.1 0 2 .7 2 1.9s-.9 2.1-2.1 2.1c-.8 0-1.5-.3-2-.8z"/></g><g fill="#828C8C"><path d="M341.3 67.7l-1 .4-.1-.6 1.3-.5h.5v6.4h-.7v-5.7zM346.2 71.9h-2.9l-.1-.5 3.1-4.5h.6v4.4h.9v.6h-.9v1.5h-.6v-1.5zm0-.5V68l-2.3 3.3h2.3z"/></g><g fill="#828C8C"><path d="M318.7 67.7l-1 .4-.1-.6 1.3-.5h.5v6.4h-.7v-5.7zM320.5 72.6l.4-.5c.4.4.8.7 1.5.7s1.3-.5 1.3-1.3-.7-1.2-1.7-1.2h-.2l-.1-.4 1.8-2.3h-2.7V67h3.6v.5l-1.8 2.3c1 .1 1.9.6 1.9 1.8 0 1.2-.9 1.9-2 1.9-.9 0-1.5-.4-2-.9z"/></g><g fill="#828C8C"><path d="M295.9 67.7l-1 .4-.1-.6 1.2-.5h.5v6.4h-.7v-5.7zM297.7 72.9l2.1-2.3c.8-.8 1.1-1.3 1.1-1.9 0-.7-.5-1.1-1.2-1.1-.6 0-1 .3-1.4.9l-.5-.4c.5-.7 1.1-1.1 2-1.1 1 0 1.8.7 1.8 1.7 0 .8-.4 1.4-1.3 2.3l-1.6 1.8h2.9v.6h-3.9v-.5z"/></g><g fill="#828C8C"><path d="M274.7 67.7l-1 .4-.1-.6 1.3-.5h.5v6.4h-.7v-5.7zM277.6 67.7l-1 .4-.1-.6 1.3-.5h.5v6.4h-.7v-5.7z"/></g><g fill="#828C8C"><path d="M249.8 67.7l-1 .4-.1-.6 1.3-.5h.5v6.4h-.7v-5.7zM251.7 70.3c0-2 .9-3.3 2.3-3.3s2.3 1.3 2.3 3.3v.1c0 1.9-.9 3.3-2.3 3.3-1.4-.2-2.3-1.5-2.3-3.4zm4 0c0-1.6-.6-2.7-1.6-2.7s-1.6 1.1-1.6 2.6v.1c0 1.5.6 2.7 1.6 2.7.9-.1 1.6-1.2 1.6-2.7z"/></g><path fill="#828C8C" d="M231.9 70.2c-.3.5-.9.9-1.5.9-1.1 0-1.9-.7-1.9-2 0-1.2.9-2.2 2-2.2.6 0 1.1.2 1.4.6.4.4.7 1.2.7 2.5 0 2.2-1 3.5-2.4 3.5-.6 0-1.2-.2-1.6-.6l.4-.5c.4.3.8.5 1.3.5 1 0 1.6-1.2 1.6-2.7zm-.1-1.1c0-.9-.5-1.5-1.4-1.5-.8 0-1.3.7-1.3 1.5 0 .9.5 1.4 1.3 1.4.9 0 1.4-.6 1.4-1.4zM206.4 71.7c0-.8.5-1.3 1.2-1.6-.5-.3-1-.7-1-1.5 0-1 .9-1.7 1.9-1.7 1 0 1.9.7 1.9 1.7 0 .7-.4 1.2-1 1.5.7.3 1.2.8 1.2 1.6 0 1.1-.9 1.8-2.1 1.8-1.2 0-2.1-.7-2.1-1.8zm3.5 0c0-.7-.6-1.3-1.4-1.3s-1.4.5-1.4 1.3c0 .7.5 1.2 1.4 1.2.8 0 1.4-.5 1.4-1.2zm-.2-3c0-.7-.5-1.1-1.2-1.1s-1.2.5-1.2 1.1c0 .7.5 1.2 1.2 1.2.7-.1 1.2-.6 1.2-1.2zM186.8 67.7h-3V67h3.7v.5l-2.5 5.9h-.7l2.5-5.7zM161.5 73c-.5-.5-.7-1.1-.7-2.5v-.1c0-2.1.9-3.5 2.4-3.5.6 0 1.1.2 1.5.6l-.4.5c-.3-.3-.7-.5-1.2-.5-1.1 0-1.6 1.2-1.7 2.7.3-.5.9-.9 1.6-.9 1 0 1.9.7 1.9 2 0 1.2-.9 2.1-2 2.1-.6.1-1.1-.1-1.4-.4zm2.7-1.6c0-.9-.5-1.4-1.3-1.4s-1.4.6-1.4 1.4c0 .8.5 1.5 1.4 1.5.8 0 1.3-.7 1.3-1.5zM138.7 72.7l.4-.5c.4.4.9.7 1.5.7.8 0 1.4-.6 1.4-1.4 0-.8-.6-1.3-1.4-1.3-.5 0-.8.1-1.1.3l-.4-.3.2-3.1h3.2v.6h-2.6l-.1 2c.3-.1.6-.2 1-.2 1.1 0 2 .7 2 1.9s-.9 2.1-2.1 2.1c-.8 0-1.5-.3-2-.8zM118.6 71.9h-2.9l-.1-.5 3.1-4.5h.6v4.4h.9v.6h-.9v1.5h-.6v-1.5zm0-.5V68l-2.3 3.3h2.3zM93 72.6l.4-.5c.4.4.8.7 1.5.7s1.3-.5 1.3-1.3-.7-1.2-1.7-1.2h-.2l-.1-.4 1.8-2.3h-2.7V67h3.6v.5l-1.8 2.3c1 .1 1.9.6 1.9 1.8 0 1.2-.9 1.9-2 1.9-.9 0-1.6-.4-2-.9zM70.2 72.9l2.1-2.3c.8-.8 1.1-1.3 1.1-1.9 0-.7-.5-1.1-1.2-1.1-.6 0-1 .3-1.4.9l-.5-.4c.5-.7 1.1-1.1 2-1.1 1 0 1.8.7 1.8 1.7 0 .8-.4 1.4-1.3 2.3l-1.6 1.8h2.9v.6h-3.9v-.5zM49.3 67.7l-1 .4-.1-.6 1.3-.5h.5v6.4h-.7v-5.7z"/><g fill="#828C8C"><path d="M12.1 67h4.1v1.2h-2.8v1.4h2.5v1.2h-2.5v1.4h2.8v1.2H12V67zM16.8 72.6l.8-1c.4.4 1 .7 1.6.7.5 0 .8-.3.8-.6s-.2-.5-1.1-.9c-1.1-.4-1.8-.9-1.8-2s.9-1.9 2.1-1.9c.7 0 1.5.3 2.1.8l-.7 1c-.4-.3-.9-.6-1.4-.6-.5 0-.7.2-.7.6 0 .4.2.5 1.2 1 1.1.4 1.7.9 1.7 1.9 0 1.2-.9 1.9-2.1 1.9-.9 0-1.8-.3-2.5-.9zM23.4 68.2h-1.6V67h4.5v1.2h-1.6v5.2h-1.3v-5.2z"/></g><path fill="#7856AF" d="M38 176.2h67.5v49.5H38z"/><g fill="#333"><path d="M104.3 244.1h2.6v10.2h5.1v2.4h-7.7v-12.6zM112.2 250.5v-.2c0-3.8 2.4-6.4 5.7-6.4 3.3 0 5.7 2.6 5.7 6.4v.2c0 3.8-2.4 6.4-5.7 6.4-3.4 0-5.7-2.6-5.7-6.4zm8.7-.1v-.1c0-2.5-1.3-4.1-3-4.1-1.8 0-3 1.5-3 4v.1c0 2.5 1.3 4.1 3 4.1 1.7.1 3-1.5 3-4zM125.2 244.1h2.4l4.8 7.3v-7.3h2.6v12.6h-2.2l-5-7.6v7.6h-2.6v-12.6zM137 244.1h4.1c3.7 0 6 2.5 6 6.2v.2c0 3.7-2.4 6.2-6 6.2H137v-12.6zm2.6 2.3v7.9h1.4c2 0 3.3-1.4 3.3-3.9v-.1c0-2.5-1.4-3.9-3.3-3.9h-1.4zM148.3 250.5v-.2c0-3.8 2.4-6.4 5.7-6.4 3.3 0 5.7 2.6 5.7 6.4v.2c0 3.8-2.4 6.4-5.7 6.4-3.4 0-5.7-2.6-5.7-6.4zm8.6-.1v-.1c0-2.5-1.3-4.1-3-4.1-1.8 0-3 1.5-3 4v.1c0 2.5 1.3 4.1 3 4.1 1.8.1 3-1.5 3-4zM161.3 244.1h2.4l4.8 7.3v-7.3h2.6v12.6h-2.2l-5-7.6v7.6h-2.6v-12.6z"/></g><g fill="#FEFEFE"><path d="M217.6 293.4h2.4l4.8 7.3v-7.3h2.6V306h-2.2l-5-7.6v7.6h-2.6v-12.6zM229.4 293.4h8.1v2.4H232v2.7h4.9v2.4H232v2.8h5.6v2.4h-8.2v-12.7zM238.4 293.4h2.8l2.1 8.3 2.3-8.3h2.3l2.3 8.3 2.1-8.3h2.7l-3.6 12.7H249l-2.3-8-2.3 8H242l-3.6-12.7zM262.7 301l-4.1-7.6h3l2.5 5 2.5-5h2.9l-4.1 7.6v5h-2.6v-5zM269.1 299.8v-.2c0-3.8 2.4-6.4 5.7-6.4 3.3 0 5.7 2.6 5.7 6.4v.2c0 3.8-2.4 6.4-5.7 6.4-3.4 0-5.7-2.6-5.7-6.4zm8.7 0v-.1c0-2.5-1.3-4.1-3-4.1-1.8 0-3 1.5-3 4v.1c0 2.5 1.3 4.1 3 4.1s3-1.5 3-4zM282.1 293.4h4.7c1.5 0 2.6.4 3.4 1.2.7.7 1.1 1.7 1.1 2.9v.1c0 1.9-1 3.1-2.3 3.7l2.7 4.7h-3l-2.3-4.1h-1.6v4.1h-2.6v-12.6zm4.5 6.2c1.3 0 2.1-.8 2.1-1.9 0-1.3-.8-1.9-2.1-1.9h-1.9v3.8h1.9zM292.9 293.4h2.6v5.4l4.1-5.4h3.1l-4.2 5.3 4.4 7.3h-3.1l-3.2-5.2-1.2 1.5v3.7h-2.6v-12.6z"/></g><g fill="#FEFEFE"><path d="M468.7 197.1h-3.2v-2.4h8.9v2.4h-3.2v10.2h-2.6v-10.2zM474.8 201.2v-.2c0-3.8 2.4-6.4 5.7-6.4 3.3 0 5.7 2.6 5.7 6.4v.2c0 3.8-2.4 6.4-5.7 6.4-3.3-.1-5.7-2.7-5.7-6.4zm8.7-.1v-.1c0-2.5-1.3-4.1-3-4.1-1.8 0-3 1.5-3 4v.1c0 2.5 1.3 4.1 3 4.1 1.8 0 3-1.5 3-4zM487.8 194.7h2.6v5.4l4.1-5.4h3.1l-4.2 5.3 4.4 7.3h-3.1l-3.2-5.2-1.2 1.5v3.7h-2.6v-12.6z"/><path d="M501.3 202.4l-4.1-7.6h3l2.5 5 2.5-5h2.9l-4.1 7.6v5h-2.6v-5zM507.6 201.2v-.2c0-3.8 2.4-6.4 5.7-6.4 3.3 0 5.7 2.6 5.7 6.4v.2c0 3.8-2.4 6.4-5.7 6.4-3.3-.1-5.7-2.7-5.7-6.4zm8.7-.1v-.1c0-2.5-1.3-4.1-3-4.1-1.8 0-3 1.5-3 4v.1c0 2.5 1.3 4.1 3 4.1 1.8 0 3-1.5 3-4z"/></g><g fill="#FEFEFE"><path d="M427.2 145.7h2.5l4.5 12.7h-2.7l-.9-2.7h-4.3l-.9 2.7h-2.6l4.4-12.7zm2.5 7.6l-1.4-4.1-1.4 4.1h2.8zM434.8 153.4v-7.7h2.6v7.7c0 1.8.8 2.7 2.2 2.7 1.4 0 2.2-.9 2.2-2.6v-7.8h2.6v7.7c0 3.5-1.9 5.1-4.8 5.1-3 0-4.8-1.7-4.8-5.1zM445.4 156.6l1.5-1.9c.8.7 1.9 1.4 3.1 1.4 1 0 1.6-.5 1.6-1.2 0-.6-.4-1-2.2-1.7-2.2-.9-3.6-1.7-3.6-3.9s1.7-3.7 4.1-3.7c1.5 0 2.9.5 4.1 1.5l-1.5 2c-.8-.6-1.7-1.2-2.7-1.2-.9 0-1.5.5-1.5 1.1 0 .7.4 1.1 2.4 1.9 2.2.9 3.4 1.8 3.4 3.8 0 2.3-1.8 3.8-4.2 3.8-1.5 0-3.2-.6-4.5-1.9zM457.9 148.1h-3.2v-2.4h8.9v2.4h-3.2v10.2h-2.6v-10.2zM464.9 145.7h4.7c1.5 0 2.6.4 3.4 1.2.7.7 1.1 1.7 1.1 2.9v.1c0 1.9-1 3.1-2.3 3.7l2.7 4.7h-3l-2.3-4.1h-1.6v4.1H465v-12.6zm4.6 6.2c1.3 0 2.1-.8 2.1-1.9 0-1.3-.8-1.9-2.1-1.9h-1.9v3.8h1.9zM479.3 145.7h2.5l4.5 12.7h-2.7l-.9-2.7h-4.3l-.9 2.7h-2.6l4.4-12.7zm2.6 7.6l-1.4-4.1-1.4 4.1h2.8zM487.5 145.7h2.6v10.2h5.1v2.4h-7.7v-12.6zM496.5 145.7h2.6v12.6h-2.6v-12.6zM504.9 145.7h2.5l4.5 12.7h-2.7l-.9-2.7H504l-.9 2.7h-2.6l4.4-12.7zm2.6 7.6l-1.4-4.1-1.4 4.1h2.8z"/></g><g fill="#073B51"><path d="M38.9 28.7v-.1c0-4.3 2.7-7.5 6.6-7.5 1.9 0 3.2.5 4.5 1.6l-.9 1.3c-.9-.8-2-1.4-3.5-1.4-2.8 0-4.9 2.5-4.9 6v.1c0 3.7 2 6.1 5 6.1 1.3 0 2.4-.5 3.2-1v-4.1H45v-1.4h5.2v6.3c-1.1.9-2.8 1.7-4.7 1.7-4.1-.1-6.6-3.1-6.6-7.6zM52.9 21.3h1.6v13.2h6.8V36h-8.4V21.3zM62 28.8v-.2c0-4.3 2.6-7.5 6.3-7.5 3.7 0 6.3 3.2 6.3 7.5v.2c0 4.3-2.6 7.5-6.3 7.5-3.8-.1-6.3-3.2-6.3-7.5zm11-.1v-.1c0-3.5-2-6.1-4.7-6.1s-4.7 2.5-4.7 6v.1c0 3.5 2 6.1 4.7 6.1 2.7.1 4.7-2.4 4.7-6zM77.1 21.3h5c1.6 0 2.8.4 3.6 1.3.6.6 1 1.4 1 2.4 0 2-1.2 2.9-2.4 3.4 1.7.5 3 1.5 3 3.5v.1c0 2.5-2 4-5.1 4h-5.1V21.3zm7.9 3.9c0-1.5-1.1-2.5-3.1-2.5h-3.3v5.2h3.2c2 0 3.2-1 3.2-2.7zm-3 4.1h-3.4v5.3h3.6c2.1 0 3.5-1 3.5-2.6 0-1.8-1.3-2.7-3.7-2.7zM94 21.2h1.6l5.6 14.8h-1.7l-1.4-3.9h-6.6L90 36h-1.6L94 21.2zm3.6 9.5l-2.8-7.5-2.8 7.5h5.6zM103.1 21.3h1.6v13.2h6.8V36h-8.4V21.3zM118.4 21.3h8.9v1.4H120V28h6.5v1.4H120V36h-1.6V21.3zM128.6 28.8v-.2c0-4.3 2.6-7.5 6.3-7.5 3.7 0 6.3 3.2 6.3 7.5v.2c0 4.3-2.6 7.5-6.3 7.5-3.7-.1-6.3-3.2-6.3-7.5zm11-.1v-.1c0-3.5-2-6.1-4.7-6.1s-4.7 2.5-4.7 6v.1c0 3.5 2 6.1 4.7 6.1 2.7.1 4.7-2.4 4.7-6zM143.7 21.3h5c1.7 0 3 .5 3.9 1.4.7.7 1.2 1.8 1.2 3 0 2.3-1.4 3.7-3.5 4.2l3.9 6h-1.9l-3.7-5.7h-3.3V36h-1.6V21.3zm4.7 7.6c2.4 0 3.7-1.2 3.7-3.1 0-1.9-1.3-3-3.5-3h-3.3v6.1h3.1zM156.2 21.3h9v1.4h-7.4v5.1h6.6v1.4h-6.6v5.2h7.5V36h-9.1V21.3zM177.7 21.3l-4.5 7.1 4.7 7.6h-1.8l-3.9-6.3-3.9 6.3h-1.8l4.7-7.5-4.5-7.2h1.8l3.7 6 3.7-6h1.8zM184.9 21.3h1.6l4.5 7.9 4.5-7.9h1.6V36h-1.6V24.2L191 32h-.1l-4.5-7.9V36h-1.5V21.3zM204.7 21.2h1.6l5.6 14.8h-1.7l-1.4-3.9h-6.6l-1.4 3.9H199l5.7-14.8zm3.5 9.5l-2.8-7.5-2.8 7.5h5.6zM213.8 21.3h5c1.7 0 3 .5 3.9 1.4.7.7 1.2 1.8 1.2 3 0 2.3-1.4 3.7-3.5 4.2l3.9 6h-1.9l-3.7-5.7h-3.3V36h-1.6V21.3zm4.7 7.6c2.4 0 3.7-1.2 3.7-3.1 0-1.9-1.3-3-3.5-3h-3.3v6.1h3.1zM226.3 21.3h1.6v8.5l7-8.5h2l-5.4 6.4 5.6 8.3h-1.9l-4.8-7-2.5 2.9V36h-1.6V21.3zM238.7 21.3h9v1.4h-7.4v5.1h6.6v1.4h-6.6v5.2h7.5V36h-9.1V21.3zM253.2 22.8h-4.1v-1.5h9.8v1.5h-4.1V36h-1.6V22.8zM265.8 21.3h1.6v6.6h7.1v-6.6h1.6V36h-1.6v-6.7h-7.1V36h-1.6V21.3zM278.5 28.8v-.2c0-4.3 2.6-7.5 6.3-7.5 3.7 0 6.3 3.2 6.3 7.5v.2c0 4.3-2.6 7.5-6.3 7.5-3.7-.1-6.3-3.2-6.3-7.5zm11.1-.1v-.1c0-3.5-2-6.1-4.7-6.1s-4.7 2.5-4.7 6v.1c0 3.5 2 6.1 4.7 6.1 2.7.1 4.7-2.4 4.7-6zM293.4 30.5v-9.2h1.6v9.2c0 2.8 1.4 4.3 3.7 4.3 2.2 0 3.7-1.4 3.7-4.2v-9.2h1.6v9.1c0 3.8-2.1 5.8-5.3 5.8-3.1-.1-5.3-2.1-5.3-5.8zM306.8 21.3h5c1.7 0 3 .5 3.9 1.4.7.7 1.2 1.8 1.2 3 0 2.3-1.4 3.7-3.5 4.2l3.9 6h-1.9l-3.7-5.7h-3.3V36h-1.6V21.3zm4.8 7.6c2.4 0 3.7-1.2 3.7-3.1 0-1.9-1.3-3-3.5-3h-3.3v6.1h3.1zM318.3 34.1l1-1.2c1.2 1.1 2.5 1.8 4.1 1.8 1.8 0 2.9-1.1 2.9-2.5 0-1.2-.6-2-3.3-2.9-3-1.1-4.2-2.2-4.2-4.3 0-2.2 1.8-3.9 4.4-3.9 1.7 0 3.1.5 4.4 1.7l-.9 1.2c-1.1-.9-2.2-1.4-3.5-1.4-1.7 0-2.8 1-2.8 2.3 0 1.3.7 2 3.4 3 3 1.1 4.1 2.3 4.1 4.3 0 2.4-1.9 4-4.6 4-1.7 0-3.4-.6-5-2.1z"/></g></svg>